<svg width="74" height="28" viewBox="0 0 74 28" fill="none" xmlns="http://www.w3.org/2000/svg">
<g clip-path="url(#clip0_2179_184)">
<path d="M7.88397 4.22266C3.77021 5.50955 0.167299 7.62719 0.034854 7.7058C0.0975912 7.67863 0.922137 7.35642 1.17109 9.21979C1.47183 11.4811 1.2169 18.4007 1.2169 20.6339C1.2169 22.2634 0.0647288 22.9097 0 22.934C0.0846454 22.9097 1.93987 22.3963 6.99868 21.7606C12.885 21.0221 16.1971 17.2245 16.1971 9.75842C16.1971 1.80999 10.4154 3.43073 7.88497 4.22169L7.88397 4.22266ZM10.5319 15.6736C10.5349 18.2542 8.99034 18.9413 7.80032 19.3615C7.57328 19.4421 6.46193 19.643 6.46193 19.643L6.45994 7.21667H7.69676C10.739 7.21667 10.5299 10.6775 10.5299 10.6775C10.5299 10.6775 10.5299 13.8724 10.5319 15.6746V15.6736Z" fill="white"/>
<path d="M27.909 7.43406C26.0717 0.847255 27.4171 0.397912 27.4689 0.383354C27.3783 0.391118 23.3143 0.778349 20.5309 1.19372C20.4104 13.7821 15.2441 20.5592 13.1519 21.4278C13.1519 21.4278 18.3202 20.9415 22.2418 20.7824C20.2501 20.1477 20.4134 16.9091 20.4134 16.8994H25.5071C25.5071 16.8994 25.8078 20.1312 24.3848 20.6979C24.3848 20.6979 26.2848 20.63 29.5999 20.5601C30.9364 20.532 32.5018 20.5038 34.2664 20.4805C31.6334 18.6657 28.7654 10.5057 27.908 7.43309L27.909 7.43406ZM21.1962 14.708C21.1962 14.708 22.2248 12.3739 22.7825 10.0389C23.6578 12.8922 24.3908 14.6682 24.3908 14.6682L21.1962 14.708Z" fill="white"/>
<path d="M42.7431 16.8324C42.7431 16.0483 42.9283 5.75123 42.7431 3.09593C42.5539 0.382405 44.7696 0.291177 44.7696 0.291177C40.2684 -0.0193841 35.2017 2.60076e-05 35.2017 2.60076e-05C35.2017 2.60076e-05 36.307 0.288265 36.5669 3.39776C36.7781 5.93951 36.5311 14.6013 36.543 16.7635C36.562 20.4175 35.2017 20.4718 35.2017 20.4718C35.2017 20.4718 43.714 20.4961 49.1343 20.7048V15.9143C45.6778 18.2271 42.7431 18.8608 42.7431 16.8334V16.8324Z" fill="white"/>
<path d="M65.3722 9.95834L65.4081 3.96451C59.461 2.21761 56.5382 1.64404 50.7126 0.807465C50.8242 0.829786 52.6037 1.2471 52.6037 5.49597C52.6037 8.62099 52.5957 13.8132 52.5957 16.8101C52.5957 20.7047 50.3481 20.8493 50.3481 20.8493C50.3481 20.8493 58.975 21.1356 65.3772 21.9043L65.3712 15.3805C61.5134 17.8456 58.1704 20.1632 58.1704 18.1455V13.0154C58.1704 12.6233 60.18 13.4687 61.126 14.051V9.79433C60.0376 10.464 58.1704 11.1792 58.1704 10.8308V6.47229C58.1704 5.495 61.1409 6.32284 65.3712 9.96028L65.3722 9.95834Z" fill="white"/>
<path d="M72.1588 6.69842C71.3591 6.18793 67.1388 4.5604 67.082 4.53905C67.1059 4.56525 68.9721 6.67804 68.1745 17.0401C68.0679 18.4308 67.082 18.4551 67.082 18.4551C67.082 18.4551 69.4103 18.7268 70.2976 18.7268C70.8273 18.7268 71.1888 18.557 71.5324 17.8117C72.2056 16.351 73.9821 11.8285 74.001 9.26928C74.009 8.04062 73.7471 7.71065 72.1588 6.69842Z" fill="white"/>
<path d="M70.4009 20.9512C70.4308 20.7358 70.3521 20.5106 70.1888 20.3388C70.0175 20.1554 69.7487 20.0341 69.4728 20.0128C69.1352 19.9836 68.8215 20.0885 68.5895 20.2729C68.6084 20.1525 68.6702 20.0351 68.7688 19.9439C69.0795 19.6469 69.6351 19.6556 69.9677 19.9303C69.8293 19.7488 69.5993 19.6197 69.3453 19.578C69.0765 19.5314 68.7787 19.5867 68.5517 19.7216C68.2718 19.8846 68.1095 20.138 68.0707 20.4058C67.994 20.3029 67.9542 20.1797 67.9602 20.0555C67.9741 19.6576 68.4073 19.3586 68.8683 19.3868C68.6254 19.3237 68.3525 19.3509 68.1265 19.4586C67.8855 19.5702 67.6992 19.776 67.6265 20.005C67.5349 20.2835 67.6007 20.5669 67.7729 20.794C67.6375 20.7571 67.513 20.6853 67.4254 20.5863C67.1366 20.2738 67.2442 19.807 67.6186 19.5751C67.3856 19.6605 67.1963 19.8313 67.1047 20.038C67.0042 20.2564 67.0161 20.5155 67.1326 20.7309C67.272 20.9949 67.5359 21.1754 67.8377 21.255C67.7062 21.3016 67.5568 21.3142 67.4154 21.287C66.9593 21.2055 66.6905 20.7901 66.803 20.4068C66.6885 20.5999 66.6725 20.8348 66.7572 21.0434C66.8448 21.2657 67.049 21.4578 67.2999 21.5588C67.6056 21.684 67.9422 21.6781 68.234 21.5724C68.1683 21.6801 68.0627 21.7723 67.9343 21.8286C67.524 22.0168 67.0052 21.846 66.803 21.4908C66.8608 21.7014 67.0251 21.8907 67.2471 22.0042C67.4812 22.1265 67.7829 22.1615 68.0508 22.1013C68.3794 22.0295 68.6323 21.8392 68.7767 21.5986C68.8076 21.7179 68.7957 21.8451 68.7399 21.9596C68.5676 22.3293 68.0408 22.4837 67.6186 22.3226C67.8217 22.4526 68.0896 22.507 68.3445 22.472C68.6154 22.4371 68.8733 22.2983 69.0327 22.1052C69.2298 21.8703 69.2816 21.585 69.2109 21.321C69.3234 21.3957 69.4111 21.4996 69.4549 21.618C69.6013 21.9965 69.3135 22.4031 68.8693 22.5118C69.1223 22.5002 69.3692 22.3944 69.5375 22.2274C69.7188 22.0518 69.8124 21.8043 69.7885 21.5685C69.7626 21.2802 69.5873 21.0328 69.3354 20.8697C69.4778 20.8649 69.6232 20.8959 69.7447 20.9629C70.141 21.1725 70.2267 21.6422 69.9677 21.9693C70.153 21.8208 70.2615 21.6054 70.2655 21.3841C70.2725 21.1492 70.1569 20.9095 69.9618 20.7406C69.7248 20.5339 69.4051 20.4407 69.0894 20.4543C69.195 20.3718 69.3294 20.3165 69.4738 20.301C69.9349 20.2437 70.3541 20.5562 70.4019 20.9493L70.4009 20.9512ZM69.1472 20.9406C69.1472 21.2162 68.8853 21.4404 68.5626 21.4404C68.24 21.4404 67.9781 21.2172 67.9781 20.9406C67.9781 20.664 68.24 20.4407 68.5626 20.4407C68.8853 20.4407 69.1472 20.664 69.1472 20.9406Z" fill="white"/>
<path d="M68.3861 20.6824L68.2139 20.9376L68.3861 21.1929H68.7307L68.903 20.9376L68.7307 20.6824H68.3861Z" fill="white"/>
<path d="M5.53844 23.7181C5.53844 23.756 5.53844 23.7929 5.5376 23.8307C5.5376 23.7929 5.53844 23.756 5.53844 23.7181Z" fill="white"/>
<path d="M2.18491 27.6914C2.11022 27.6487 2.0674 27.5798 2.05545 27.4856C2.00068 27.0479 1.9469 26.6112 1.89213 26.1735C1.55753 26.2133 1.22393 26.2531 0.890328 26.2939C0.946094 26.7306 1.00286 27.1683 1.05862 27.605C1.06958 27.6875 1.04767 27.7613 0.99489 27.8253C0.942111 27.8894 0.874395 27.9263 0.792737 27.936C0.771825 27.9389 0.749916 27.9408 0.729004 27.9437C0.730996 27.9622 0.733983 27.9816 0.735975 28C1.31455 27.9292 1.89313 27.8593 2.4717 27.7914C2.46971 27.7729 2.46672 27.7535 2.46473 27.7351C2.44482 27.737 2.4259 27.7399 2.40598 27.7419C2.33229 27.7506 2.2586 27.7331 2.18391 27.6904L2.18491 27.6914Z" fill="white"/>
<path d="M4.324 27.3896C4.26127 27.341 4.18459 27.2682 4.09496 27.1712C4.02227 27.0916 3.95555 27.013 3.89281 26.9354C3.83007 26.8587 3.77729 26.7888 3.73248 26.7267C3.68767 26.6646 3.65282 26.6161 3.62892 26.5802C3.56419 26.4996 3.47158 26.4142 3.35208 26.3249C3.23258 26.2356 3.10411 26.1793 2.96669 26.156C3.15889 26.1036 3.30627 26.0231 3.40983 25.9134C3.5134 25.8047 3.58211 25.6815 3.61298 25.5466C3.64485 25.4117 3.65282 25.2816 3.63887 25.1564C3.61697 24.9681 3.5602 24.8177 3.46958 24.7051C3.37896 24.5926 3.26544 24.511 3.13001 24.4596C2.99457 24.4082 2.84719 24.3771 2.68786 24.3664C2.52952 24.3558 2.37119 24.3596 2.21384 24.3781C1.57452 24.4528 0.935201 24.5285 0.296875 24.6071C0.298867 24.6256 0.301854 24.645 0.303846 24.6634C0.327746 24.6605 0.35065 24.6576 0.37455 24.6547C0.457203 24.645 0.530895 24.6634 0.597615 24.711C0.66334 24.7585 0.702177 24.8255 0.713131 24.9119C0.760931 25.2874 0.809726 25.6621 0.857526 26.0376C0.857526 26.0376 1.85933 25.9115 1.74381 24.9749C1.71792 24.7682 1.71095 24.709 1.70896 24.6954C1.74979 24.6906 1.78663 24.6857 1.82049 24.6789C1.85535 24.6731 1.89518 24.6692 1.939 24.6683C1.96688 24.6644 2.0107 24.6654 2.07045 24.6702C2.13119 24.6751 2.19692 24.6925 2.26862 24.7246C2.34031 24.7566 2.40504 24.8119 2.46181 24.8915C2.51956 24.9711 2.56139 25.0856 2.58728 25.235C2.59724 25.2836 2.60222 25.3263 2.60321 25.3622C2.60321 25.3981 2.60321 25.4262 2.60122 25.4456C2.59724 25.6067 2.57135 25.7319 2.52454 25.8212C2.47774 25.9105 2.42197 25.9765 2.35525 26.0182C2.28953 26.06 2.21882 26.0862 2.14414 26.0949C2.11526 26.0988 2.08538 26.1017 2.0565 26.1056C2.0585 26.1211 2.06049 26.1357 2.06248 26.1512C2.09833 26.1512 2.14613 26.1706 2.20687 26.2114C2.26762 26.2521 2.32239 26.3327 2.37318 26.453C2.39608 26.5112 2.42297 26.5724 2.45185 26.6364C2.48172 26.7005 2.51458 26.7626 2.55243 26.8257C2.58927 26.8888 2.6301 26.9499 2.67292 27.0101C2.71574 27.0703 2.75856 27.1304 2.80138 27.1906C2.92586 27.341 3.04835 27.4488 3.16884 27.5157C3.28934 27.5827 3.42577 27.6196 3.57813 27.6273C3.73049 27.6351 3.90974 27.6273 4.11588 27.604C4.31205 27.5827 4.50823 27.5604 4.70441 27.539C4.70242 27.5206 4.70043 27.5012 4.69744 27.4827C4.62773 27.4905 4.563 27.4885 4.50525 27.4779C4.44649 27.4672 4.38674 27.4371 4.324 27.3886V27.3896Z" fill="white"/>
<path d="M6.8901 24.019C6.92495 24.0452 6.95283 24.0772 6.97076 24.1141C7.5563 24.0559 8.14185 23.9996 8.72839 23.9452C8.92557 23.9307 9.08291 23.9724 9.19942 24.0704C9.31593 24.1685 9.38365 24.314 9.40158 24.5072C9.40257 24.5208 9.40456 24.5334 9.40556 24.547C9.42547 24.545 9.4444 24.5431 9.46431 24.5421C9.43344 24.2131 9.40157 23.8841 9.3707 23.5551C9.32888 23.5745 9.24623 23.5997 9.12473 23.6318C9.00225 23.6638 8.88673 23.6851 8.77619 23.6958C8.04725 23.7638 7.3183 23.8336 6.58936 23.9074C6.59135 23.9258 6.59334 23.9452 6.59533 23.9637C6.61724 23.9617 6.63915 23.9588 6.66006 23.9569C6.7467 23.9482 6.82338 23.9685 6.8901 24.02V24.019Z" fill="white"/>
<path d="M9.67347 26.3899C9.58683 26.5297 9.47928 26.6403 9.35082 26.7228C9.22336 26.8053 9.07996 26.8538 8.91963 26.8684C8.7115 26.8878 8.50238 26.9072 8.29425 26.9276C8.25043 26.4889 8.20562 26.0512 8.1618 25.6126C8.34802 25.5951 8.53325 25.5776 8.71947 25.5602C8.87282 25.5495 9.00029 25.5883 9.10386 25.6757C9.20742 25.763 9.26618 25.8814 9.28012 26.0289C9.28012 26.0386 9.28211 26.0474 9.28311 26.0571C9.30501 26.0551 9.32593 26.0532 9.34784 26.0512C9.30501 25.6087 9.26219 25.1661 9.22037 24.7246C9.19846 24.7265 9.17755 24.7284 9.15564 24.7304C9.15564 24.7381 9.15664 24.7459 9.15763 24.7527C9.17157 24.8963 9.13572 25.0215 9.05108 25.1283C8.96643 25.236 8.84793 25.2981 8.69557 25.3156C8.50935 25.3331 8.32313 25.3505 8.13691 25.368C8.13691 25.368 8.1306 25.3056 8.11799 25.1807C8.03334 24.3296 7.01859 24.381 7.01859 24.381C7.10722 25.2263 7.19485 26.0716 7.28348 26.916C7.29245 26.9994 7.26954 27.0722 7.21477 27.1343C7.16 27.1974 7.09029 27.2323 7.00465 27.2411C6.98374 27.243 6.96183 27.245 6.94092 27.2479C6.94291 27.2663 6.9449 27.2857 6.94689 27.3042C7.90189 27.2081 8.85689 27.1168 9.81289 27.0305C9.84177 26.652 9.87064 26.2745 9.90052 25.896C9.88259 25.8979 9.86567 25.8989 9.84774 25.9008C9.81787 26.0862 9.75911 26.2492 9.67247 26.389L9.67347 26.3899Z" fill="white"/>
<path d="M13.9945 24.1898C13.7765 23.7987 13.7466 23.7346 13.7466 23.7337C13.6988 23.6347 13.6998 23.5561 13.7486 23.4988C13.7974 23.4415 13.8561 23.4105 13.9228 23.4056C13.9388 23.4047 13.9547 23.4037 13.9706 23.4017C13.9696 23.3843 13.9677 23.3678 13.9667 23.3503C13.3293 23.3979 12.692 23.4474 12.0557 23.4988C12.0577 23.5182 12.0587 23.5366 12.0606 23.5551C12.0746 23.5541 12.0885 23.5531 12.1025 23.5522C12.1811 23.5464 12.2658 23.5619 12.3564 23.6007C12.447 23.6395 12.5247 23.7133 12.5894 23.822C13.0505 24.5625 13.5086 25.3039 13.9637 26.0464C13.9637 26.0464 14.4457 25.004 13.9935 24.1879L13.9945 24.1898Z" fill="white"/>
<path d="M14.9527 23.2416C14.9687 23.2406 14.9846 23.2397 15.0005 23.2387C15.0673 23.2339 15.13 23.2562 15.1868 23.3057C15.2435 23.3552 15.2545 23.4318 15.2186 23.5376C15.2196 23.5376 15.2216 23.5376 15.2226 23.5376C15.1021 23.8569 14.9816 24.1752 14.8621 24.4945C14.7675 24.7469 14.6739 24.9982 14.5793 25.2506C14.4399 25.6232 14.3025 25.9959 14.165 26.3695C14.2377 26.4889 14.3104 26.6083 14.3831 26.7277C14.3991 26.7267 14.414 26.7257 14.4299 26.7238C14.4349 26.6811 14.4459 26.6248 14.4638 26.553C14.4817 26.4812 14.5046 26.4074 14.5315 26.3307C14.5594 26.2541 14.5853 26.1842 14.6092 26.1192C14.6341 26.0551 14.651 26.0066 14.66 25.9755C14.9896 25.1516 15.3232 24.3286 15.6598 23.5066C15.7106 23.3891 15.7783 23.3047 15.8619 23.2533C15.9456 23.2018 16.0252 23.1737 16.0999 23.1688C16.1159 23.1679 16.1318 23.1669 16.1477 23.1659C16.1467 23.1465 16.1447 23.1281 16.1437 23.1087C15.7454 23.1349 15.3461 23.163 14.9478 23.1912C14.9488 23.2086 14.9507 23.2251 14.9517 23.2426L14.9527 23.2416Z" fill="white"/>
<path d="M20.2223 26.1463C20.1566 26.093 20.1208 26.0241 20.1168 25.9406C20.1148 25.9406 20.1128 25.9406 20.1118 25.9406C20.0909 25.566 20.07 25.1914 20.0491 24.8177H20.0471C20.0471 24.7983 20.0471 24.7799 20.0471 24.7595C20.0281 24.4276 19.9614 23.2339 19.9614 23.2329C19.9634 23.2329 19.9654 23.2329 19.9664 23.2329C19.9614 23.1455 19.9893 23.0728 20.05 23.0145C20.1098 22.9563 20.1855 22.9243 20.2761 22.9204C20.296 22.9194 20.3159 22.9184 20.3349 22.9175C20.3339 22.8981 20.3329 22.8796 20.3319 22.8602C19.7374 22.8913 19.1428 22.9233 18.5483 22.9582C18.5493 22.9776 18.5503 22.9961 18.5513 23.0155C18.5732 23.0145 18.5941 23.0126 18.6161 23.0116C18.7027 23.0068 18.7794 23.0301 18.8461 23.0815C18.9128 23.1329 18.9507 23.2018 18.9596 23.2892C18.9915 23.8171 19.0224 24.3451 19.0542 24.873C19.0682 25.1128 19.0831 25.3525 19.097 25.5932C19.105 25.7281 19.113 25.862 19.1209 25.9959C19.1219 26.0794 19.0931 26.1512 19.0343 26.2123C18.9756 26.2725 18.9029 26.3055 18.8172 26.3104C18.7963 26.3113 18.7744 26.3133 18.7535 26.3142C18.7545 26.3336 18.7555 26.3521 18.7565 26.3715C19.345 26.3375 19.9345 26.3055 20.5231 26.2744C20.5221 26.255 20.5211 26.2366 20.5201 26.2172C20.4982 26.2182 20.4773 26.2191 20.4554 26.2201C20.3657 26.225 20.2881 26.2007 20.2233 26.1463H20.2223Z" fill="white"/>
<path d="M25.4684 24.1296C25.1816 23.9908 24.8948 23.853 24.608 23.7152C24.5273 23.6803 24.4527 23.6444 24.382 23.6065C24.3113 23.5696 24.2555 23.524 24.2137 23.4707C24.1718 23.4173 24.1519 23.3523 24.1529 23.2766C24.1599 23.1514 24.2166 23.0485 24.3242 22.9708C24.4317 22.8922 24.5801 22.8505 24.7703 22.8437C25.0034 22.835 25.1896 22.8845 25.327 22.9893C25.4654 23.0951 25.5371 23.2348 25.5431 23.4095C25.557 23.4095 25.571 23.4095 25.5849 23.4085C25.6088 23.1776 25.6327 22.9476 25.6556 22.7166C25.6576 22.7166 25.6596 22.7166 25.6616 22.7166C25.6646 22.6845 25.6676 22.6516 25.6706 22.6195C25.5501 22.6234 25.4296 22.6273 25.3081 22.6312C25.2533 22.6273 25.1946 22.6234 25.1328 22.6205C25.0043 22.6137 24.8789 22.6098 24.7584 22.6079C24.6379 22.6069 24.5433 22.6079 24.4766 22.6098C24.2704 22.6176 24.0912 22.6574 23.9378 22.7302C23.7845 22.803 23.663 22.9058 23.5733 23.0378C23.4837 23.1708 23.4319 23.3328 23.416 23.5231C23.3901 23.7482 23.4329 23.9501 23.5455 24.1277C23.657 24.3053 23.8273 24.4392 24.0553 24.5295C24.3043 24.6527 24.5522 24.777 24.8012 24.9002C24.9844 24.973 25.1179 25.0516 25.2015 25.1341C25.2852 25.2166 25.328 25.3088 25.332 25.4117C25.337 25.5369 25.2882 25.6504 25.1886 25.7533C25.089 25.8552 24.9277 25.9105 24.7046 25.9192C24.4855 25.9241 24.2963 25.8824 24.136 25.795C23.9757 25.7086 23.8542 25.5912 23.7715 25.4447C23.6889 25.2981 23.648 25.139 23.648 24.9681C23.6341 24.9681 23.6201 24.9691 23.6072 24.9701C23.5594 25.0448 23.5196 25.139 23.4867 25.2544C23.4548 25.3699 23.4369 25.4854 23.4339 25.6019C23.4309 25.7183 23.4509 25.8154 23.4937 25.893C23.5475 25.9522 23.6251 26.0027 23.7287 26.0464C23.8323 26.09 23.9587 26.1221 24.1081 26.1425C24.2575 26.1638 24.4238 26.1706 24.607 26.1638C24.9038 26.1531 25.1587 26.1027 25.3718 26.0143C25.5859 25.9251 25.7512 25.7989 25.8687 25.6358C25.9862 25.4728 26.048 25.2768 26.052 25.0487C26.0639 24.8167 26.0141 24.6246 25.9026 24.4722C25.7911 24.3198 25.6457 24.2073 25.4664 24.1335L25.4684 24.1296Z" fill="white"/>
<path d="M29.8663 25.8047C29.928 25.7465 29.9559 25.6756 29.9499 25.5922C29.934 24.7643 29.919 23.9355 29.9031 23.1077C29.9031 23.1077 30.9159 23.0912 30.9328 24.2209C30.9408 24.7585 30.9537 25.5767 30.9537 25.5767C30.9587 25.6601 30.9915 25.73 31.0503 25.7863C31.11 25.8426 31.1847 25.8697 31.2744 25.8688C31.2943 25.8688 31.3132 25.8688 31.3331 25.8688C31.3331 25.8882 31.3331 25.9066 31.3331 25.926C30.7515 25.9338 30.169 25.9425 29.5874 25.9542C29.5874 25.9348 29.5874 25.9163 29.5864 25.8969C29.6063 25.8969 29.6253 25.8969 29.6452 25.8959C29.7308 25.894 29.8045 25.8649 29.8663 25.8067V25.8047Z" fill="white"/>
<path d="M31.7752 22.4808C31.6906 22.4914 31.6119 22.4973 31.5412 22.4973C30.7834 22.506 30.0265 22.5186 29.2687 22.5341C29.194 22.5361 29.1143 22.5322 29.0307 22.5244C28.9471 22.5167 28.8724 22.507 28.8046 22.4953C28.7369 22.4837 28.6871 22.472 28.6553 22.4613C28.6632 22.7894 28.6702 23.1184 28.6782 23.4464C28.6981 23.4464 28.718 23.4464 28.7369 23.4454C28.7369 23.4318 28.7369 23.4192 28.7369 23.4056C28.7329 23.2164 28.7827 23.0669 28.8863 22.9582C28.9909 22.8495 29.1412 22.7913 29.3394 22.7836C30.0504 22.769 30.7614 22.7583 31.4735 22.7496C31.6706 22.7506 31.825 22.8039 31.9345 22.9097C32.0441 23.0145 32.0998 23.163 32.1018 23.3523C32.1018 23.3659 32.1018 23.3785 32.1018 23.3921C32.1218 23.3921 32.1417 23.3921 32.1606 23.3921C32.1576 23.064 32.1536 22.735 32.1506 22.407C32.1267 22.4186 32.0799 22.4313 32.0082 22.4458C31.9375 22.4604 31.8589 22.472 31.7742 22.4827L31.7752 22.4808Z" fill="white"/>
<path d="M38.243 25.863C38.1653 25.863 38.0827 25.8387 37.998 25.7921C37.9323 25.7572 37.8765 25.7019 37.8297 25.6281C37.7063 25.3728 37.5818 25.1186 37.4573 24.8633C36.7682 24.8575 36.0791 24.8536 35.39 24.8527C35.5503 24.4965 35.7126 24.1393 35.8739 23.7832C35.9974 24.0588 36.1209 24.3334 36.2444 24.6091C36.2444 24.6091 37.1566 24.25 36.7403 23.4037C36.6188 23.1552 36.1916 22.3031 36.1916 22.3031C36.1757 22.3031 36.1597 22.3031 36.1438 22.3031C36.1398 22.3449 36.1249 22.4002 36.099 22.4681C36.0731 22.5361 36.0432 22.6089 36.0094 22.6846C35.9755 22.7603 35.9436 22.8282 35.9138 22.8893C35.8839 22.9505 35.863 22.9951 35.851 23.0262C35.4407 23.8695 35.0344 24.7139 34.6321 25.5592C34.5784 25.6611 34.5116 25.7339 34.43 25.7766C34.3443 25.8222 34.2617 25.8455 34.184 25.8455C34.1681 25.8455 34.1531 25.8455 34.1372 25.8455C34.1372 25.8649 34.1372 25.8833 34.1372 25.9027C34.5335 25.9018 34.9299 25.9008 35.3262 25.9018C35.3262 25.8824 35.3262 25.8639 35.3262 25.8445C35.3123 25.8445 35.2993 25.8445 35.2854 25.8445C35.2187 25.8445 35.1589 25.8193 35.1042 25.7678C35.0494 25.7164 35.0434 25.6417 35.0862 25.5427H35.0813C35.149 25.3923 35.2157 25.2428 35.2834 25.0924C35.6738 25.0924 36.0641 25.0943 36.4545 25.0963C36.5202 25.2467 36.5869 25.3971 36.6527 25.5475C36.6507 25.5475 36.6487 25.5475 36.6467 25.5475C36.6895 25.6465 36.6825 25.7213 36.6278 25.7727C36.573 25.8232 36.5123 25.8494 36.4455 25.8484C36.4296 25.8484 36.4147 25.8484 36.3987 25.8484C36.3987 25.8678 36.3987 25.8862 36.3987 25.9057C37.0291 25.9086 37.6604 25.9144 38.2908 25.9212C38.2908 25.9018 38.2908 25.8833 38.2908 25.8639C38.2749 25.8639 38.2599 25.8639 38.244 25.8639L38.243 25.863Z" fill="white"/>
<path d="M44.7516 24.1393C44.4757 23.9811 44.1999 23.8239 43.923 23.6677C43.8454 23.6269 43.7727 23.5862 43.705 23.5444C43.6372 23.5027 43.5845 23.4532 43.5466 23.3969C43.5088 23.3406 43.4928 23.2746 43.4998 23.1989C43.5158 23.0737 43.5795 22.9757 43.693 22.9058C43.8055 22.835 43.9569 22.803 44.1471 22.8088C44.3801 22.8165 44.5624 22.8777 44.6918 22.9922C44.8223 23.1067 44.884 23.2513 44.877 23.426C44.891 23.426 44.9049 23.426 44.9189 23.428C44.9587 23.1999 44.9995 22.9709 45.0394 22.7428C45.0414 22.7428 45.0434 22.7428 45.0453 22.7428C45.0503 22.7108 45.0553 22.6787 45.0613 22.6467C44.9408 22.6428 44.8203 22.638 44.6988 22.6341C44.644 22.6263 44.5863 22.6186 44.5245 22.6108C44.3961 22.5953 44.2726 22.5827 44.1521 22.5729C44.0316 22.5632 43.938 22.5574 43.8703 22.5555C43.6641 22.5487 43.4829 22.5768 43.3246 22.6389C43.1662 22.7011 43.0378 22.7952 42.9392 22.9214C42.8406 23.0475 42.7768 23.2057 42.748 23.395C42.7061 23.6182 42.735 23.822 42.8336 24.0074C42.9322 24.1927 43.0925 24.3373 43.3136 24.4431C43.5526 24.5829 43.7916 24.7236 44.0306 24.8643C44.2079 24.9497 44.3353 25.0371 44.413 25.1244C44.4907 25.2127 44.5275 25.3078 44.5235 25.4107C44.5195 25.5359 44.4628 25.6465 44.3562 25.7416C44.2487 25.8368 44.0844 25.8804 43.8613 25.8736C43.6422 25.863 43.457 25.8086 43.3036 25.7116C43.1503 25.6145 43.0378 25.4893 42.9661 25.3369C42.8944 25.1846 42.8645 25.0235 42.8774 24.8527C42.8635 24.8527 42.8495 24.8527 42.8366 24.8517C42.7838 24.9225 42.737 25.0138 42.6962 25.1273C42.6554 25.2399 42.6295 25.3544 42.6185 25.4699C42.6076 25.5854 42.6205 25.6834 42.6573 25.764C42.7061 25.8261 42.7808 25.8824 42.8814 25.9328C42.982 25.9833 43.1055 26.0241 43.2529 26.0541C43.4002 26.0852 43.5655 26.1036 43.7488 26.1095C44.0455 26.1182 44.3035 26.0862 44.5225 26.0124C44.7426 25.9377 44.9169 25.8241 45.0453 25.6689C45.1748 25.5136 45.2495 25.3234 45.2704 25.0953C45.2993 24.8643 45.2634 24.6692 45.1629 24.5101C45.0633 24.3509 44.9258 24.2277 44.7516 24.1423V24.1393Z" fill="white"/>
<path d="M49.5075 26.1347C49.4498 26.0745 49.4239 26.0027 49.4279 25.9192C49.4767 25.0167 49.5255 24.1141 49.5753 23.2115C49.5802 23.1281 49.6141 23.0582 49.6788 23.0029C49.7435 22.9476 49.8212 22.9223 49.9118 22.9262C49.9198 22.9262 49.9397 22.9282 49.9706 22.9291C49.9716 22.9097 49.9726 22.8913 49.9736 22.8719C49.8471 22.8651 49.7206 22.8583 49.5942 22.8525C49.5882 22.8525 49.5822 22.8525 49.5762 22.8525C49.2506 22.836 48.924 22.8195 48.5983 22.8039C48.5944 22.8039 48.5904 22.8039 48.5864 22.8039C48.4559 22.7981 48.3255 22.7913 48.195 22.7855C48.195 22.8049 48.193 22.8233 48.192 22.8428C48.2 22.8428 48.213 22.8437 48.2309 22.8447C48.2488 22.8447 48.2598 22.8457 48.2637 22.8466C48.3504 22.8505 48.4231 22.8825 48.4818 22.9427C48.5406 23.0029 48.5695 23.0757 48.5685 23.164C48.5227 24.0666 48.4769 24.9691 48.432 25.8717C48.4241 25.9552 48.3882 26.0241 48.3245 26.0774C48.2608 26.1318 48.1861 26.1561 48.1004 26.1522C48.0925 26.1522 48.0716 26.1512 48.0357 26.1493C48.0357 26.1687 48.0337 26.1871 48.0327 26.2065C48.1592 26.2123 48.2867 26.2182 48.4131 26.225C48.4171 26.225 48.4211 26.225 48.4251 26.225C48.7467 26.2405 49.0684 26.256 49.391 26.2725C49.397 26.2725 49.403 26.2725 49.409 26.2725C49.5334 26.2793 49.6589 26.2851 49.7834 26.2919C49.7844 26.2725 49.7854 26.2541 49.7864 26.2347C49.7555 26.2327 49.7356 26.2318 49.7276 26.2318C49.638 26.2269 49.5643 26.1949 49.5065 26.1347H49.5075Z" fill="white"/>
<path d="M50.4804 24.2024C50.2444 24.446 50.0084 24.6906 49.7734 24.9352C49.7395 24.876 49.7116 24.8274 49.6907 24.7896C49.6658 24.7449 49.6529 24.7207 49.6539 24.7168C50.0801 24.2121 50.5073 23.7084 50.9385 23.2067C50.9385 23.2067 50.9375 23.2067 50.9365 23.2067C50.9833 23.1523 50.9952 23.1009 50.9723 23.0514C50.9494 23.0029 50.9046 22.9757 50.8369 22.9728C50.819 22.9728 50.8011 22.9709 50.7831 22.9699C50.7841 22.9524 50.7851 22.9359 50.7861 22.9185C51.1894 22.9408 51.5917 22.9641 51.9951 22.9883C51.9941 23.0058 51.9931 23.0223 51.9921 23.0398C51.9841 23.0398 51.9761 23.0398 51.9682 23.0388C51.8576 23.032 51.7521 23.0475 51.6535 23.0854C51.5539 23.1232 51.4703 23.1766 51.4025 23.2445C51.0948 23.5638 50.7871 23.8831 50.4814 24.2024H50.4804Z" fill="white"/>
<path d="M52.063 26.3705C52.062 26.388 52.061 26.4045 52.0601 26.422C51.8848 26.4113 51.7095 26.4006 51.5333 26.3899C51.4944 26.388 51.4267 26.3822 51.3321 26.3754C51.2365 26.3676 51.126 26.3463 50.9985 26.3104C50.871 26.2744 50.7456 26.2201 50.6211 26.1463C50.4966 26.0726 50.3861 25.9736 50.3034 25.8406C50.2835 25.8086 50.2735 25.7853 50.2198 25.6931C49.8085 24.9827 50.6539 24.4868 50.6539 24.4877C50.9557 24.9827 51.2554 25.4786 51.5532 25.9746C51.6279 26.1007 51.7045 26.1968 51.7852 26.2618C51.8649 26.3278 51.9575 26.3637 52.063 26.3696V26.3705Z" fill="white"/>
<path d="M58.1595 26.8034C58.0818 26.7966 58.0021 26.7675 57.9195 26.7151C57.8567 26.6753 57.8049 26.6161 57.7641 26.5404C57.6595 26.2774 57.555 26.0144 57.4494 25.7514C56.7623 25.696 56.0742 25.6436 55.3871 25.5941C55.5743 25.2496 55.7625 24.906 55.9507 24.5625C56.0533 24.8459 56.1558 25.1293 56.2584 25.4126C56.2584 25.4126 57.1955 25.1196 56.843 24.2461C56.7394 23.9899 56.3779 23.1087 56.3769 23.1096C56.361 23.1087 56.3451 23.1077 56.3291 23.1058C56.3222 23.1475 56.3022 23.2009 56.2714 23.2669C56.2405 23.3329 56.2046 23.4027 56.1658 23.4755C56.126 23.5483 56.0891 23.6143 56.0553 23.6725C56.0214 23.7308 55.9965 23.7744 55.9826 23.8045C55.5105 24.6168 55.0415 25.4291 54.5765 26.2434C54.5157 26.3414 54.443 26.4084 54.3584 26.4462C54.2697 26.486 54.1861 26.5025 54.1074 26.4977C54.0915 26.4967 54.0766 26.4957 54.0606 26.4948C54.0596 26.5142 54.0576 26.5326 54.0566 26.552C54.452 26.5792 54.8483 26.6073 55.2437 26.6355C55.2447 26.6161 55.2467 26.5976 55.2476 26.5782C55.2337 26.5772 55.2208 26.5763 55.2068 26.5753C55.1401 26.5705 55.0823 26.5404 55.0316 26.486C54.9808 26.4307 54.9808 26.356 55.0316 26.2599C55.0296 26.2599 55.0276 26.2599 55.0266 26.2599C55.1052 26.1153 55.1839 25.9707 55.2626 25.8261C55.652 25.8542 56.0413 25.8833 56.4317 25.9134C56.4865 26.0677 56.5412 26.223 56.595 26.3773C56.593 26.3773 56.591 26.3773 56.589 26.3773C56.6239 26.4792 56.6119 26.553 56.5532 26.6005C56.4944 26.6471 56.4317 26.6685 56.366 26.6636C56.35 26.6627 56.3351 26.6617 56.3192 26.6597C56.3172 26.6792 56.3162 26.6976 56.3142 26.717C56.9435 26.7655 57.5729 26.815 58.2013 26.8674C58.2033 26.848 58.2043 26.8296 58.2063 26.8111C58.1903 26.8102 58.1754 26.8082 58.1595 26.8073V26.8034Z" fill="white"/>
<path d="M66.8403 24.4198C66.8692 24.4528 66.8881 24.4897 66.8981 24.5295C67.4826 24.5955 68.0682 24.6634 68.6527 24.7333C68.8489 24.7605 68.9933 24.8342 69.0849 24.9546C69.1775 25.0749 69.2114 25.2312 69.1865 25.4233C69.1845 25.4369 69.1835 25.4495 69.1815 25.4631C69.2014 25.4651 69.2203 25.468 69.2403 25.4699C69.2821 25.1419 69.3249 24.8138 69.3667 24.4868C69.3219 24.4965 69.2353 24.5043 69.1088 24.5101C68.9823 24.5159 68.8638 24.512 68.7543 24.4984C68.0263 24.4111 67.2984 24.3267 66.5704 24.2451C66.5685 24.2636 66.5665 24.283 66.5635 24.3014C66.5854 24.3043 66.6063 24.3063 66.6282 24.3092C66.7148 24.3189 66.7855 24.3558 66.8393 24.4189L66.8403 24.4198Z" fill="white"/>
<path d="M69.0359 27.3197C68.9204 27.4381 68.7909 27.5235 68.6475 27.5769C68.5041 27.6302 68.3538 27.6477 68.1944 27.6283C67.9863 27.6031 67.7782 27.5788 67.5701 27.5545C67.6238 27.1168 67.6776 26.6801 67.7314 26.2424C67.9166 26.2638 68.1028 26.2861 68.2881 26.3084C68.4404 26.3307 68.5569 26.3948 68.6386 26.5025C68.7202 26.6102 68.7511 26.7374 68.7332 26.8839C68.7322 26.8936 68.7312 26.9024 68.7292 26.9121C68.7511 26.915 68.772 26.9169 68.7939 26.9198C68.8497 26.4792 68.9065 26.0376 68.9622 25.597C68.9403 25.5941 68.9194 25.5922 68.8975 25.5893C68.8975 25.597 68.8955 25.6048 68.8945 25.6116C68.8766 25.7552 68.8139 25.8697 68.7073 25.9561C68.6007 26.0435 68.4713 26.0794 68.3189 26.0648C68.1337 26.0425 67.9475 26.0211 67.7613 25.9988C67.7613 25.9988 67.7689 25.9364 67.7842 25.8115C67.8897 24.9623 66.8869 24.7993 66.8869 24.8003C66.7863 25.6436 66.6858 26.488 66.5852 27.3313C66.5752 27.4138 66.5364 27.4808 66.4697 27.5303C66.4029 27.5798 66.3263 27.6002 66.2406 27.5905C66.2197 27.5885 66.1978 27.5856 66.1769 27.5837C66.1749 27.6021 66.1729 27.6215 66.1699 27.6399C67.1239 27.7467 68.0779 27.8583 69.0309 27.9748C69.1425 27.6118 69.255 27.2479 69.3675 26.8849C69.3496 26.883 69.3327 26.881 69.3147 26.8781C69.245 27.0528 69.1514 27.1993 69.0359 27.3177V27.3197Z" fill="white"/>
<path d="M61.2337 26.9897C61.3014 26.9383 61.3383 26.8713 61.3423 26.7878C61.4239 25.9629 61.5056 25.139 61.5882 24.315C61.5882 24.315 62.598 24.4111 62.4815 25.5359C62.4267 26.0716 62.3421 26.8849 62.3421 26.8849C62.3371 26.9684 62.361 27.0411 62.4138 27.1033C62.4665 27.1654 62.5373 27.2013 62.6269 27.21C62.6468 27.212 62.6657 27.2139 62.6856 27.2158C62.6836 27.2343 62.6816 27.2537 62.6797 27.2721C62.1001 27.2149 61.5205 27.1586 60.9399 27.1052C60.9419 27.0868 60.9439 27.0674 60.9459 27.0489C60.9658 27.0509 60.9848 27.0528 61.0047 27.0547C61.0903 27.0625 61.167 27.0411 61.2347 26.9907L61.2337 26.9897Z" fill="white"/>
<path d="M63.5242 23.9016C63.4385 23.9016 63.3599 23.8996 63.2891 23.8919C62.5343 23.8162 61.7805 23.7434 61.0246 23.6745C60.9499 23.6677 60.8713 23.656 60.7896 23.6386C60.708 23.6221 60.6343 23.6036 60.5685 23.5842C60.5028 23.5648 60.455 23.5483 60.4242 23.5338C60.3933 23.8608 60.3624 24.1879 60.3315 24.5149C60.3515 24.5169 60.3704 24.5188 60.3903 24.5198C60.3913 24.5062 60.3933 24.4936 60.3943 24.48C60.4122 24.2907 60.4789 24.1481 60.5954 24.052C60.7119 23.9559 60.8683 23.9152 61.0665 23.9287C61.7755 23.9947 62.4845 24.0627 63.1926 24.1335C63.3887 24.1568 63.5361 24.2267 63.6327 24.3441C63.7293 24.4606 63.7681 24.6139 63.7472 24.8022C63.7462 24.8158 63.7442 24.8284 63.7432 24.842C63.7632 24.8439 63.7821 24.8459 63.802 24.8478C63.8369 24.5208 63.8727 24.1947 63.9076 23.8676C63.8827 23.8763 63.8339 23.8841 63.7622 23.8899C63.6895 23.8967 63.6108 23.8996 63.5252 23.9006L63.5242 23.9016Z" fill="white"/>
</g>
<defs>
<clipPath id="clip0_2179_184">
<rect width="74" height="28" fill="white"/>
</clipPath>
</defs>
</svg>
